<mxfile host="65bd71144e">
    <diagram id="LTP1VPyZegd0h1axm4Ou" name="Page-1">
        <mxGraphModel dx="680" dy="354" grid="1" gridSize="10" guides="1" tooltips="1" connect="1" arrows="1" fold="1" page="1" pageScale="1" pageWidth="850" pageHeight="1100" math="0" shadow="0">
            <root>
                <mxCell id="0"/>
                <mxCell id="1" parent="0"/>
                <mxCell id="19" style="edgeStyle=entityRelationEdgeStyle;shape=connector;rounded=1;html=1;labelBackgroundColor=default;strokeColor=default;strokeWidth=2;fontFamily=Helvetica;fontSize=11;fontColor=default;endArrow=classic;entryX=0;entryY=0.5;entryDx=0;entryDy=0;" parent="1" source="20" target="24" edge="1">
                    <mxGeometry relative="1" as="geometry">
                        <mxPoint x="310" y="185" as="targetPoint"/>
                    </mxGeometry>
                </mxCell>
                <mxCell id="20" value="&lt;div style=&quot;color: rgb(247, 241, 255); background-color: rgb(34, 34, 34); font-family: &amp;quot;Ubuntu Mono&amp;quot;, Consolas, &amp;quot;Courier New&amp;quot;, monospace; font-weight: normal; font-size: 14px; line-height: 19px;&quot;&gt;&lt;div&gt;&lt;span style=&quot;color: #fc618d;font-style: italic;&quot;&gt;static&lt;/span&gt;&lt;span style=&quot;color: #f7f1ff;&quot;&gt; &lt;/span&gt;&lt;span style=&quot;color: #fc618d;font-style: italic;&quot;&gt;const&lt;/span&gt;&lt;span style=&quot;color: #f7f1ff;&quot;&gt; &lt;/span&gt;&lt;span style=&quot;color: #5ad4e6;font-style: italic;&quot;&gt;int16_t&lt;/span&gt;&lt;span style=&quot;color: #f7f1ff;&quot;&gt; &lt;/span&gt;&lt;span style=&quot;color: #f7f1ff;&quot;&gt;sine_int16&lt;/span&gt;&lt;span style=&quot;color: #fc618d;font-style: italic;&quot;&gt;[]&lt;/span&gt;&lt;/div&gt;&lt;/div&gt;" style="text;whiteSpace=wrap;html=1;" parent="1" vertex="1">
                    <mxGeometry x="235" y="360" width="240" height="30" as="geometry"/>
                </mxCell>
                <mxCell id="29" style="edgeStyle=orthogonalEdgeStyle;html=1;exitX=1;exitY=0.25;exitDx=0;exitDy=0;entryX=0.75;entryY=0;entryDx=0;entryDy=0;curved=1;" parent="1" source="22" target="26" edge="1">
                    <mxGeometry relative="1" as="geometry"/>
                </mxCell>
                <mxCell id="22" value="&lt;div style=&quot;color: rgb(247, 241, 255); background-color: rgb(34, 34, 34); font-family: &amp;quot;Ubuntu Mono&amp;quot;, Consolas, &amp;quot;Courier New&amp;quot;, monospace; font-size: 14px; line-height: 19px;&quot;&gt;&lt;span style=&quot;color: rgb(90, 212, 230); font-style: italic;&quot;&gt;void&lt;/span&gt;&lt;span style=&quot;color: #7bd88f;&quot;&gt;&amp;nbsp;sco_demo_sine_wave_host_endian&lt;/span&gt;&lt;/div&gt;" style="swimlane;fontStyle=0;childLayout=stackLayout;horizontal=1;startSize=30;horizontalStack=0;resizeParent=1;resizeParentMax=0;resizeLast=0;collapsible=1;marginBottom=0;whiteSpace=wrap;html=1;fontFamily=Helvetica;fontSize=11;fontColor=default;" parent="1" vertex="1">
                    <mxGeometry x="540" y="430" width="290" height="120" as="geometry"/>
                </mxCell>
                <mxCell id="23" value="&lt;div style=&quot;color: rgb(247, 241, 255); background-color: rgb(34, 34, 34); font-family: &amp;quot;Ubuntu Mono&amp;quot;, Consolas, &amp;quot;Courier New&amp;quot;, monospace; font-size: 14px; line-height: 19px;&quot;&gt;&lt;span style=&quot;color: #5ad4e6;font-style: italic;&quot;&gt;uint16_t&lt;/span&gt; &lt;span style=&quot;color: #fd9353;font-style: italic;&quot;&gt;num_samples&lt;/span&gt;&lt;span style=&quot;color: #8b888f;&quot;&gt;,&lt;/span&gt;&lt;/div&gt;" style="text;strokeColor=none;fillColor=none;align=left;verticalAlign=middle;spacingLeft=4;spacingRight=4;overflow=hidden;points=[[0,0.5],[1,0.5]];portConstraint=eastwest;rotatable=0;whiteSpace=wrap;html=1;fontFamily=Helvetica;fontSize=11;fontColor=default;" parent="22" vertex="1">
                    <mxGeometry y="30" width="290" height="30" as="geometry"/>
                </mxCell>
                <mxCell id="24" value="&lt;div style=&quot;color: rgb(247, 241, 255); background-color: rgb(34, 34, 34); font-family: &amp;quot;Ubuntu Mono&amp;quot;, Consolas, &amp;quot;Courier New&amp;quot;, monospace; font-size: 14px; line-height: 19px;&quot;&gt;&lt;span style=&quot;color: #5ad4e6;font-style: italic;&quot;&gt;int16_t&lt;/span&gt; &lt;span style=&quot;color: #fc618d;&quot;&gt;*&lt;/span&gt; &lt;span style=&quot;color: #fd9353;font-style: italic;&quot;&gt;data&lt;/span&gt;&lt;/div&gt;" style="text;strokeColor=none;fillColor=none;align=left;verticalAlign=middle;spacingLeft=4;spacingRight=4;overflow=hidden;points=[[0,0.5],[1,0.5]];portConstraint=eastwest;rotatable=0;whiteSpace=wrap;html=1;fontFamily=Helvetica;fontSize=11;fontColor=default;" parent="22" vertex="1">
                    <mxGeometry y="60" width="290" height="30" as="geometry"/>
                </mxCell>
                <mxCell id="25" value="Передает в принятый буфер синусоиду по Little endian" style="text;strokeColor=none;fillColor=none;align=left;verticalAlign=middle;spacingLeft=4;spacingRight=4;overflow=hidden;points=[[0,0.5],[1,0.5]];portConstraint=eastwest;rotatable=0;whiteSpace=wrap;html=1;fontFamily=Helvetica;fontSize=11;fontColor=default;" parent="22" vertex="1">
                    <mxGeometry y="90" width="290" height="30" as="geometry"/>
                </mxCell>
                <mxCell id="37" style="edgeStyle=orthogonalEdgeStyle;curved=1;html=1;exitX=0.25;exitY=1;exitDx=0;exitDy=0;entryX=0.5;entryY=0;entryDx=0;entryDy=0;" parent="1" source="26" target="36" edge="1">
                    <mxGeometry relative="1" as="geometry"/>
                </mxCell>
                <mxCell id="26" value="&lt;div style=&quot;color: rgb(247, 241, 255); background-color: rgb(34, 34, 34); font-family: &amp;quot;Ubuntu Mono&amp;quot;, Consolas, &amp;quot;Courier New&amp;quot;, monospace; font-weight: normal; font-size: 14px; line-height: 19px;&quot;&gt;&lt;div&gt;&lt;span style=&quot;color: #f7f1ff;&quot;&gt;sco_demo_audio_generator&lt;/span&gt;&lt;span style=&quot;color: #f7f1ff;&quot;&gt; &lt;/span&gt;&lt;span style=&quot;color: #fc618d;&quot;&gt;=&lt;/span&gt;&lt;span style=&quot;color: #f7f1ff;&quot;&gt; &lt;/span&gt;&lt;span style=&quot;color: #fc618d;&quot;&gt;&amp;amp;&lt;/span&gt;&lt;span style=&quot;color: #7bd88f;&quot;&gt;sco_demo_sine_wave_host_endian&lt;/span&gt;&lt;span style=&quot;color: #8b888f;&quot;&gt;;&lt;/span&gt;&lt;/div&gt;&lt;/div&gt;" style="text;whiteSpace=wrap;html=1;fontSize=11;fontFamily=Helvetica;fontColor=default;" parent="1" vertex="1">
                    <mxGeometry x="890" y="500" width="450" height="40" as="geometry"/>
                </mxCell>
                <mxCell id="32" style="edgeStyle=orthogonalEdgeStyle;curved=1;html=1;entryX=0.5;entryY=0;entryDx=0;entryDy=0;" parent="1" source="30" target="22" edge="1">
                    <mxGeometry relative="1" as="geometry"/>
                </mxCell>
                <mxCell id="30" value="&lt;font color=&quot;#050505&quot;&gt;можно будет вывести в заголовок и сделать управляющей потоком звука функцией, передающейся по ссылке&amp;nbsp;&lt;/font&gt;" style="text;html=1;align=center;verticalAlign=middle;whiteSpace=wrap;rounded=0;fillColor=#b1ddf0;strokeColor=#10739e;" parent="1" vertex="1">
                    <mxGeometry x="535" y="360" width="300" height="50" as="geometry"/>
                </mxCell>
                <mxCell id="35" style="edgeStyle=orthogonalEdgeStyle;curved=1;html=1;exitX=0.5;exitY=1;exitDx=0;exitDy=0;entryX=0.135;entryY=0.009;entryDx=0;entryDy=0;entryPerimeter=0;" parent="1" source="34" target="26" edge="1">
                    <mxGeometry relative="1" as="geometry"/>
                </mxCell>
                <mxCell id="34" value="&lt;div style=&quot;color: rgb(247, 241, 255); background-color: rgb(34, 34, 34); font-family: &amp;quot;Ubuntu Mono&amp;quot;, Consolas, &amp;quot;Courier New&amp;quot;, monospace; font-weight: normal; font-size: 14px; line-height: 19px;&quot;&gt;&lt;div&gt;&lt;span style=&quot;color: #fc618d;font-style: italic;&quot;&gt;static&lt;/span&gt;&lt;span style=&quot;color: #f7f1ff;&quot;&gt; &lt;/span&gt;&lt;span style=&quot;color: #5ad4e6;font-style: italic;&quot;&gt;void&lt;/span&gt;&lt;span style=&quot;color: #f7f1ff;&quot;&gt; &lt;/span&gt;&lt;span style=&quot;color: #8b888f;&quot;&gt;(&lt;/span&gt;&lt;span style=&quot;color: #fc618d;&quot;&gt;*&lt;/span&gt;&lt;span style=&quot;color: #f7f1ff;&quot;&gt;sco_demo_audio_generator&lt;/span&gt;&lt;span style=&quot;color: #8b888f;&quot;&gt;)(&lt;/span&gt;&lt;span style=&quot;color: #5ad4e6;font-style: italic;&quot;&gt;uint16_t&lt;/span&gt;&lt;span style=&quot;color: #f7f1ff;&quot;&gt; num_samples&lt;/span&gt;&lt;span style=&quot;color: #8b888f;&quot;&gt;,&lt;/span&gt;&lt;span style=&quot;color: #f7f1ff;&quot;&gt; &lt;/span&gt;&lt;span style=&quot;color: #5ad4e6;font-style: italic;&quot;&gt;int16_t&lt;/span&gt;&lt;span style=&quot;color: #f7f1ff;&quot;&gt; &lt;/span&gt;&lt;span style=&quot;color: #fc618d;&quot;&gt;*&lt;/span&gt;&lt;span style=&quot;color: #f7f1ff;&quot;&gt; data&lt;/span&gt;&lt;span style=&quot;color: #8b888f;&quot;&gt;);&lt;/span&gt;&lt;/div&gt;&lt;div&gt;&lt;span style=&quot;color: #8b888f;&quot;&gt;&lt;/span&gt;&lt;/div&gt;&lt;/div&gt;" style="text;whiteSpace=wrap;html=1;" parent="1" vertex="1">
                    <mxGeometry x="850" y="340" width="560" height="30" as="geometry"/>
                </mxCell>
                <mxCell id="39" value="&lt;div style=&quot;color: rgb(247, 241, 255); background-color: rgb(34, 34, 34); font-family: &amp;quot;Ubuntu Mono&amp;quot;, Consolas, &amp;quot;Courier New&amp;quot;, monospace; font-weight: normal; font-size: 14px; line-height: 19px;&quot;&gt;&lt;br&gt;&lt;div&gt;&lt;span style=&quot;color: #5ad4e6;font-style: italic;&quot;&gt;void&lt;/span&gt;&lt;span style=&quot;color: #f7f1ff;&quot;&gt; &lt;/span&gt;&lt;span style=&quot;color: #7bd88f;&quot;&gt;sco_demo_send&lt;/span&gt;&lt;span style=&quot;color: #8b888f;&quot;&gt;(&lt;/span&gt;&lt;span style=&quot;color: #5ad4e6;font-style: italic;&quot;&gt;hci_con_handle_t&lt;/span&gt;&lt;span style=&quot;color: #f7f1ff;&quot;&gt; &lt;/span&gt;&lt;span style=&quot;color: #fd9353;font-style: italic;&quot;&gt;sco_handle&lt;/span&gt;&lt;span style=&quot;color: #8b888f;&quot;&gt;){&lt;/span&gt;&lt;/div&gt;&lt;br&gt;&lt;div&gt;&lt;span style=&quot;color: #f7f1ff;&quot;&gt;&amp;nbsp; &amp;nbsp; &lt;/span&gt;&lt;span style=&quot;color: #fc618d;&quot;&gt;if&lt;/span&gt;&lt;span style=&quot;color: #f7f1ff;&quot;&gt; &lt;/span&gt;&lt;span style=&quot;color: #8b888f;&quot;&gt;(&lt;/span&gt;&lt;span style=&quot;color: #fd9353;font-style: italic;&quot;&gt;sco_handle&lt;/span&gt;&lt;span style=&quot;color: #f7f1ff;&quot;&gt; &lt;/span&gt;&lt;span style=&quot;color: #fc618d;&quot;&gt;==&lt;/span&gt;&lt;span style=&quot;color: #f7f1ff;&quot;&gt; &lt;/span&gt;&lt;span style=&quot;color: #5ad4e6;&quot;&gt;HCI_CON_HANDLE_INVALID&lt;/span&gt;&lt;span style=&quot;color: #8b888f;&quot;&gt;)&lt;/span&gt;&lt;span style=&quot;color: #f7f1ff;&quot;&gt; &lt;/span&gt;&lt;span style=&quot;color: #fc618d;&quot;&gt;return&lt;/span&gt;&lt;span style=&quot;color: #8b888f;&quot;&gt;;&lt;/span&gt;&lt;/div&gt;&lt;br&gt;&lt;div&gt;&lt;span style=&quot;color: #f7f1ff;&quot;&gt;&amp;nbsp; &amp;nbsp; &lt;/span&gt;&lt;span style=&quot;color: #5ad4e6;font-style: italic;&quot;&gt;int&lt;/span&gt;&lt;span style=&quot;color: #f7f1ff;&quot;&gt; &lt;/span&gt;&lt;span style=&quot;color: #f7f1ff;&quot;&gt;sco_packet_length&lt;/span&gt;&lt;span style=&quot;color: #f7f1ff;&quot;&gt; &lt;/span&gt;&lt;span style=&quot;color: #fc618d;&quot;&gt;=&lt;/span&gt;&lt;span style=&quot;color: #f7f1ff;&quot;&gt; &lt;/span&gt;&lt;span style=&quot;color: #7bd88f;&quot;&gt;hci_get_sco_packet_length&lt;/span&gt;&lt;span style=&quot;color: #8b888f;&quot;&gt;();&lt;/span&gt;&lt;/div&gt;&lt;div&gt;&lt;span style=&quot;color: #f7f1ff;&quot;&gt;&amp;nbsp; &amp;nbsp; &lt;/span&gt;&lt;span style=&quot;color: #5ad4e6;font-style: italic;&quot;&gt;int&lt;/span&gt;&lt;span style=&quot;color: #f7f1ff;&quot;&gt; &lt;/span&gt;&lt;span style=&quot;color: #f7f1ff;&quot;&gt;sco_payload_length&lt;/span&gt;&lt;span style=&quot;color: #f7f1ff;&quot;&gt; &lt;/span&gt;&lt;span style=&quot;color: #fc618d;&quot;&gt;=&lt;/span&gt;&lt;span style=&quot;color: #f7f1ff;&quot;&gt; &lt;/span&gt;&lt;span style=&quot;color: #f7f1ff;&quot;&gt;sco_packet_length&lt;/span&gt;&lt;span style=&quot;color: #f7f1ff;&quot;&gt; &lt;/span&gt;&lt;span style=&quot;color: #fc618d;&quot;&gt;-&lt;/span&gt;&lt;span style=&quot;color: #f7f1ff;&quot;&gt; &lt;/span&gt;&lt;span style=&quot;color: #948ae3;&quot;&gt;3&lt;/span&gt;&lt;span style=&quot;color: #8b888f;&quot;&gt;;&lt;/span&gt;&lt;/div&gt;&lt;br&gt;&lt;div&gt;&lt;span style=&quot;color: #f7f1ff;&quot;&gt;&amp;nbsp; &amp;nbsp; &lt;/span&gt;&lt;span style=&quot;color: #7bd88f;&quot;&gt;hci_reserve_packet_buffer&lt;/span&gt;&lt;span style=&quot;color: #8b888f;&quot;&gt;();&lt;/span&gt;&lt;/div&gt;&lt;div&gt;&lt;span style=&quot;color: #f7f1ff;&quot;&gt;&amp;nbsp; &amp;nbsp; &lt;/span&gt;&lt;span style=&quot;color: #5ad4e6;font-style: italic;&quot;&gt;uint8_t&lt;/span&gt;&lt;span style=&quot;color: #f7f1ff;&quot;&gt; &lt;/span&gt;&lt;span style=&quot;color: #fc618d;&quot;&gt;*&lt;/span&gt;&lt;span style=&quot;color: #f7f1ff;&quot;&gt; &lt;/span&gt;&lt;span style=&quot;color: #f7f1ff;&quot;&gt;sco_packet&lt;/span&gt;&lt;span style=&quot;color: #f7f1ff;&quot;&gt; &lt;/span&gt;&lt;span style=&quot;color: #fc618d;&quot;&gt;=&lt;/span&gt;&lt;span style=&quot;color: #f7f1ff;&quot;&gt; &lt;/span&gt;&lt;span style=&quot;color: #7bd88f;&quot;&gt;hci_get_outgoing_packet_buffer&lt;/span&gt;&lt;span style=&quot;color: #8b888f;&quot;&gt;();&lt;/span&gt;&lt;/div&gt;&lt;br&gt;&lt;div&gt;&lt;span style=&quot;color: #8b888f;&quot;&gt;#&lt;/span&gt;&lt;span style=&quot;color: #fc618d;&quot;&gt;ifdef&lt;/span&gt;&lt;span style=&quot;color: #948ae3;&quot;&gt; &lt;/span&gt;&lt;span style=&quot;color: #5ad4e6;&quot;&gt;USE_ADUIO_GENERATOR&lt;/span&gt;&lt;/div&gt;&lt;div&gt;&lt;span style=&quot;color: #948ae3;&quot;&gt;&amp;nbsp; &amp;nbsp; &lt;/span&gt;&lt;span style=&quot;color: #8b888f;&quot;&gt;#&lt;/span&gt;&lt;span style=&quot;color: #fc618d;&quot;&gt;define&lt;/span&gt;&lt;span style=&quot;color: #948ae3;&quot;&gt; &lt;/span&gt;&lt;span style=&quot;color: #5ad4e6;&quot;&gt;REFILL_SAMPLES&lt;/span&gt;&lt;span style=&quot;color: #948ae3;&quot;&gt; 16&lt;/span&gt;&lt;/div&gt;&lt;div&gt;&lt;span style=&quot;color: #8b888f;&quot;&gt;&amp;nbsp; &amp;nbsp; &lt;/span&gt;&lt;span style=&quot;color: #69676c;font-style: italic;&quot;&gt;// re-fill audio buffer&lt;/span&gt;&lt;/div&gt;&lt;div&gt;&lt;span style=&quot;color: #f7f1ff;&quot;&gt;&amp;nbsp; &amp;nbsp; &lt;/span&gt;&lt;span style=&quot;color: #5ad4e6;font-style: italic;&quot;&gt;uint16_t&lt;/span&gt;&lt;span style=&quot;color: #f7f1ff;&quot;&gt; &lt;/span&gt;&lt;span style=&quot;color: #f7f1ff;&quot;&gt;samples_free&lt;/span&gt;&lt;span style=&quot;color: #f7f1ff;&quot;&gt; &lt;/span&gt;&lt;span style=&quot;color: #fc618d;&quot;&gt;=&lt;/span&gt;&lt;span style=&quot;color: #f7f1ff;&quot;&gt; &lt;/span&gt;&lt;span style=&quot;color: #7bd88f;&quot;&gt;btstack_ring_buffer_bytes_free&lt;/span&gt;&lt;span style=&quot;color: #8b888f;&quot;&gt;(&lt;/span&gt;&lt;span style=&quot;color: #fc618d;&quot;&gt;&amp;amp;&lt;/span&gt;&lt;span style=&quot;color: #f7f1ff;&quot;&gt;audio_input_ring_buffer&lt;/span&gt;&lt;span style=&quot;color: #8b888f;&quot;&gt;)&lt;/span&gt;&lt;span style=&quot;color: #f7f1ff;&quot;&gt; &lt;/span&gt;&lt;span style=&quot;color: #fc618d;&quot;&gt;/&lt;/span&gt;&lt;span style=&quot;color: #f7f1ff;&quot;&gt; &lt;/span&gt;&lt;span style=&quot;color: #948ae3;&quot;&gt;2&lt;/span&gt;&lt;span style=&quot;color: #8b888f;&quot;&gt;;&lt;/span&gt;&lt;/div&gt;&lt;div&gt;&lt;span style=&quot;color: #f7f1ff;&quot;&gt;&amp;nbsp; &amp;nbsp; &lt;/span&gt;&lt;span style=&quot;color: #fc618d;&quot;&gt;while&lt;/span&gt;&lt;span style=&quot;color: #f7f1ff;&quot;&gt; &lt;/span&gt;&lt;span style=&quot;color: #8b888f;&quot;&gt;(&lt;/span&gt;&lt;span style=&quot;color: #f7f1ff;&quot;&gt;samples_free&lt;/span&gt;&lt;span style=&quot;color: #f7f1ff;&quot;&gt; &lt;/span&gt;&lt;span style=&quot;color: #fc618d;&quot;&gt;&amp;gt;&lt;/span&gt;&lt;span style=&quot;color: #f7f1ff;&quot;&gt; &lt;/span&gt;&lt;span style=&quot;color: #948ae3;&quot;&gt;0&lt;/span&gt;&lt;span style=&quot;color: #8b888f;&quot;&gt;){&lt;/span&gt;&lt;/div&gt;&lt;div&gt;&lt;span style=&quot;color: #f7f1ff;&quot;&gt;&amp;nbsp; &amp;nbsp; &amp;nbsp; &amp;nbsp; &lt;/span&gt;&lt;span style=&quot;color: #5ad4e6;font-style: italic;&quot;&gt;int16_t&lt;/span&gt;&lt;span style=&quot;color: #f7f1ff;&quot;&gt; &lt;/span&gt;&lt;span style=&quot;color: #f7f1ff;&quot;&gt;samples_buffer&lt;/span&gt;&lt;span style=&quot;color: #8b888f;&quot;&gt;[&lt;/span&gt;&lt;span style=&quot;color: #5ad4e6;&quot;&gt;REFILL_SAMPLES&lt;/span&gt;&lt;span style=&quot;color: #8b888f;&quot;&gt;];&lt;/span&gt;&lt;/div&gt;&lt;div&gt;&lt;span style=&quot;color: #f7f1ff;&quot;&gt;&amp;nbsp; &amp;nbsp; &amp;nbsp; &amp;nbsp; &lt;/span&gt;&lt;span style=&quot;color: #5ad4e6;font-style: italic;&quot;&gt;uint16_t&lt;/span&gt;&lt;span style=&quot;color: #f7f1ff;&quot;&gt; &lt;/span&gt;&lt;span style=&quot;color: #f7f1ff;&quot;&gt;samples_to_add&lt;/span&gt;&lt;span style=&quot;color: #f7f1ff;&quot;&gt; &lt;/span&gt;&lt;span style=&quot;color: #fc618d;&quot;&gt;=&lt;/span&gt;&lt;span style=&quot;color: #f7f1ff;&quot;&gt; &lt;/span&gt;&lt;span style=&quot;color: #7bd88f;&quot;&gt;btstack_min&lt;/span&gt;&lt;span style=&quot;color: #8b888f;&quot;&gt;(&lt;/span&gt;&lt;span style=&quot;color: #f7f1ff;&quot;&gt;samples_free&lt;/span&gt;&lt;span style=&quot;color: #8b888f;&quot;&gt;,&lt;/span&gt;&lt;span style=&quot;color: #f7f1ff;&quot;&gt; &lt;/span&gt;&lt;span style=&quot;color: #5ad4e6;&quot;&gt;REFILL_SAMPLES&lt;/span&gt;&lt;span style=&quot;color: #8b888f;&quot;&gt;);&lt;/span&gt;&lt;/div&gt;&lt;div&gt;&lt;span style=&quot;color: #f7f1ff;&quot;&gt;&amp;nbsp; &amp;nbsp; &amp;nbsp; &amp;nbsp; &lt;/span&gt;&lt;span style=&quot;color: #8b888f;&quot;&gt;(&lt;/span&gt;&lt;span style=&quot;color: #fc618d;&quot;&gt;*&lt;/span&gt;&lt;span style=&quot;color: #f7f1ff;&quot;&gt;sco_demo_audio_generator&lt;/span&gt;&lt;span style=&quot;color: #8b888f;&quot;&gt;)(&lt;/span&gt;&lt;span style=&quot;color: #f7f1ff;&quot;&gt;samples_to_add&lt;/span&gt;&lt;span style=&quot;color: #8b888f;&quot;&gt;,&lt;/span&gt;&lt;span style=&quot;color: #f7f1ff;&quot;&gt; &lt;/span&gt;&lt;span style=&quot;color: #f7f1ff;&quot;&gt;samples_buffer&lt;/span&gt;&lt;span style=&quot;color: #8b888f;&quot;&gt;);&lt;/span&gt;&lt;/div&gt;&lt;div&gt;&lt;span style=&quot;color: #f7f1ff;&quot;&gt;&amp;nbsp; &amp;nbsp; &amp;nbsp; &amp;nbsp; &lt;/span&gt;&lt;span style=&quot;color: #7bd88f;&quot;&gt;btstack_ring_buffer_write&lt;/span&gt;&lt;span style=&quot;color: #8b888f;&quot;&gt;(&lt;/span&gt;&lt;span style=&quot;color: #fc618d;&quot;&gt;&amp;amp;&lt;/span&gt;&lt;span style=&quot;color: #f7f1ff;&quot;&gt;audio_input_ring_buffer&lt;/span&gt;&lt;span style=&quot;color: #8b888f;&quot;&gt;,&lt;/span&gt;&lt;span style=&quot;color: #f7f1ff;&quot;&gt; &lt;/span&gt;&lt;span style=&quot;color: #8b888f;&quot;&gt;(&lt;/span&gt;&lt;span style=&quot;color: #5ad4e6;font-style: italic;&quot;&gt;uint8_t&lt;/span&gt;&lt;span style=&quot;color: #f7f1ff;&quot;&gt; &lt;/span&gt;&lt;span style=&quot;color: #fc618d;&quot;&gt;*&lt;/span&gt;&lt;span style=&quot;color: #8b888f;&quot;&gt;)&lt;/span&gt;&lt;span style=&quot;color: #f7f1ff;&quot;&gt;samples_buffer&lt;/span&gt;&lt;span style=&quot;color: #8b888f;&quot;&gt;,&lt;/span&gt;&lt;span style=&quot;color: #f7f1ff;&quot;&gt; &lt;/span&gt;&lt;span style=&quot;color: #f7f1ff;&quot;&gt;samples_to_add&lt;/span&gt;&lt;span style=&quot;color: #f7f1ff;&quot;&gt; &lt;/span&gt;&lt;span style=&quot;color: #fc618d;&quot;&gt;*&lt;/span&gt;&lt;span style=&quot;color: #f7f1ff;&quot;&gt; &lt;/span&gt;&lt;span style=&quot;color: #948ae3;&quot;&gt;2&lt;/span&gt;&lt;span style=&quot;color: #8b888f;&quot;&gt;);&lt;/span&gt;&lt;/div&gt;&lt;div&gt;&lt;span style=&quot;color: #f7f1ff;&quot;&gt;&amp;nbsp; &amp;nbsp; &amp;nbsp; &amp;nbsp; &lt;/span&gt;&lt;span style=&quot;color: #f7f1ff;&quot;&gt;samples_free&lt;/span&gt;&lt;span style=&quot;color: #f7f1ff;&quot;&gt; &lt;/span&gt;&lt;span style=&quot;color: #fc618d;&quot;&gt;-=&lt;/span&gt;&lt;span style=&quot;color: #f7f1ff;&quot;&gt; &lt;/span&gt;&lt;span style=&quot;color: #f7f1ff;&quot;&gt;samples_to_add&lt;/span&gt;&lt;span style=&quot;color: #8b888f;&quot;&gt;;&lt;/span&gt;&lt;/div&gt;&lt;div&gt;&lt;span style=&quot;color: #f7f1ff;&quot;&gt;&amp;nbsp; &amp;nbsp; &lt;/span&gt;&lt;span style=&quot;color: #8b888f;&quot;&gt;}&lt;/span&gt;&lt;/div&gt;&lt;div&gt;&lt;span style=&quot;color: #8b888f;&quot;&gt;#&lt;/span&gt;&lt;span style=&quot;color: #fc618d;&quot;&gt;endif&lt;/span&gt;&lt;/div&gt;&lt;/div&gt;" style="text;whiteSpace=wrap;html=1;fontColor=#050505;" parent="1" vertex="1">
                    <mxGeometry x="650" y="660" width="810" height="450" as="geometry"/>
                </mxCell>
                <mxCell id="36" value="&lt;span style=&quot;border-color: rgb(0, 0, 0); color: rgb(247, 241, 255); font-family: &amp;quot;Ubuntu Mono&amp;quot;, Consolas, &amp;quot;Courier New&amp;quot;, monospace; font-size: 14px; font-style: normal; font-variant-ligatures: normal; font-variant-caps: normal; font-weight: 400; letter-spacing: normal; orphans: 2; text-align: left; text-indent: 0px; text-transform: none; widows: 2; word-spacing: 0px; -webkit-text-stroke-width: 0px; background-color: rgb(34, 34, 34); text-decoration-thickness: initial; text-decoration-style: initial; text-decoration-color: initial;&quot;&gt;sco_demo_audio_generator&lt;/span&gt;&lt;span style=&quot;border-color: rgb(0, 0, 0); color: rgb(247, 241, 255); font-family: &amp;quot;Ubuntu Mono&amp;quot;, Consolas, &amp;quot;Courier New&amp;quot;, monospace; font-size: 14px; font-style: normal; font-variant-ligatures: normal; font-variant-caps: normal; font-weight: 400; letter-spacing: normal; orphans: 2; text-align: left; text-indent: 0px; text-transform: none; widows: 2; word-spacing: 0px; -webkit-text-stroke-width: 0px; background-color: rgb(34, 34, 34); text-decoration-thickness: initial; text-decoration-style: initial; text-decoration-color: initial;&quot;&gt;&lt;span&gt;&amp;nbsp;&lt;/span&gt;&lt;/span&gt;" style="text;whiteSpace=wrap;html=1;fillColor=#fad9d5;strokeColor=#ae4132;" parent="1" vertex="1">
                    <mxGeometry x="870" y="620" width="170" height="30" as="geometry"/>
                </mxCell>
                <mxCell id="38" value="интерес" style="text;html=1;align=center;verticalAlign=middle;resizable=0;points=[];autosize=1;strokeColor=none;fillColor=none;" parent="1" vertex="1">
                    <mxGeometry x="985" y="555" width="70" height="30" as="geometry"/>
                </mxCell>
                <mxCell id="41" style="edgeStyle=orthogonalEdgeStyle;curved=1;html=1;fontColor=#050505;entryX=0.074;entryY=0.778;entryDx=0;entryDy=0;entryPerimeter=0;startArrow=none;" parent="1" source="44" target="39" edge="1">
                    <mxGeometry relative="1" as="geometry">
                        <mxPoint x="610" y="1080" as="targetPoint"/>
                        <Array as="points">
                            <mxPoint x="510" y="1010"/>
                        </Array>
                    </mxGeometry>
                </mxCell>
                <mxCell id="46" value="" style="edgeStyle=orthogonalEdgeStyle;curved=1;html=1;fontColor=#050505;entryX=0.074;entryY=0.778;entryDx=0;entryDy=0;entryPerimeter=0;endArrow=none;" parent="1" source="36" target="44" edge="1">
                    <mxGeometry relative="1" as="geometry">
                        <mxPoint x="709.94" y="1010.0999999999999" as="targetPoint"/>
                        <Array as="points">
                            <mxPoint x="955" y="610"/>
                        </Array>
                        <mxPoint x="955" y="620" as="sourcePoint"/>
                    </mxGeometry>
                </mxCell>
                <mxCell id="44" value="Значение фазы сохраняется за счет глобальной переменной, относящейся к функции host endian. Это хуево. Переделать." style="text;html=1;strokeColor=none;fillColor=none;align=center;verticalAlign=middle;whiteSpace=wrap;rounded=0;" parent="1" vertex="1">
                    <mxGeometry x="380" y="740" width="220" height="30" as="geometry"/>
                </mxCell>
                <mxCell id="52" style="edgeStyle=entityRelationEdgeStyle;html=1;exitX=1;exitY=0.5;exitDx=0;exitDy=0;entryX=0;entryY=0.25;entryDx=0;entryDy=0;" edge="1" parent="1" source="47" target="49">
                    <mxGeometry relative="1" as="geometry"/>
                </mxCell>
                <mxCell id="53" style="edgeStyle=entityRelationEdgeStyle;html=1;entryX=0;entryY=0.5;entryDx=0;entryDy=0;" edge="1" parent="1" source="47" target="50">
                    <mxGeometry relative="1" as="geometry"/>
                </mxCell>
                <mxCell id="54" style="edgeStyle=entityRelationEdgeStyle;html=1;" edge="1" parent="1" source="47" target="51">
                    <mxGeometry relative="1" as="geometry"/>
                </mxCell>
                <mxCell id="47" value="&lt;div style=&quot;color: rgb(247, 241, 255); background-color: rgb(34, 34, 34); font-family: &amp;quot;Ubuntu Mono&amp;quot;, Consolas, &amp;quot;Courier New&amp;quot;, monospace; font-weight: normal; font-size: 14px; line-height: 19px;&quot;&gt;&lt;div&gt;&lt;span style=&quot;color: #8b888f;&quot;&gt;#&lt;/span&gt;&lt;span style=&quot;color: #fc618d;&quot;&gt;ifdef&lt;/span&gt;&lt;span style=&quot;color: #948ae3;&quot;&gt; &lt;/span&gt;&lt;span style=&quot;color: #5ad4e6;&quot;&gt;USE_AUDIO_INPUT&lt;/span&gt;&lt;/div&gt;&lt;/div&gt;" style="text;whiteSpace=wrap;html=1;" vertex="1" parent="1">
                    <mxGeometry x="340" y="1445" width="160" height="30" as="geometry"/>
                </mxCell>
                <mxCell id="61" style="edgeStyle=orthogonalEdgeStyle;curved=1;html=1;" edge="1" parent="1" source="48" target="47">
                    <mxGeometry relative="1" as="geometry"/>
                </mxCell>
                <mxCell id="48" value="Влияет на 3 позиции" style="text;html=1;align=center;verticalAlign=middle;resizable=0;points=[];autosize=1;strokeColor=none;fillColor=none;" vertex="1" parent="1">
                    <mxGeometry x="350" y="1400" width="140" height="30" as="geometry"/>
                </mxCell>
                <mxCell id="56" style="edgeStyle=entityRelationEdgeStyle;html=1;entryX=0;entryY=0.5;entryDx=0;entryDy=0;" edge="1" parent="1" source="49" target="55">
                    <mxGeometry relative="1" as="geometry"/>
                </mxCell>
                <mxCell id="49" value="&lt;div style=&quot;color: rgb(247, 241, 255); background-color: rgb(34, 34, 34); font-family: &amp;quot;Ubuntu Mono&amp;quot;, Consolas, &amp;quot;Courier New&amp;quot;, monospace; font-weight: normal; font-size: 14px; line-height: 19px;&quot;&gt;&lt;div&gt;&lt;span style=&quot;color: #fc618d;font-style: italic;&quot;&gt;static&lt;/span&gt;&lt;span style=&quot;color: #f7f1ff;&quot;&gt; &lt;/span&gt;&lt;span style=&quot;color: #5ad4e6;font-style: italic;&quot;&gt;void&lt;/span&gt;&lt;span style=&quot;color: #f7f1ff;&quot;&gt; &lt;/span&gt;&lt;span style=&quot;color: #7bd88f;&quot;&gt;audio_recording_callback&lt;/span&gt;&lt;span style=&quot;color: #8b888f;&quot;&gt;(&lt;/span&gt;&lt;span style=&quot;color: #fc618d;font-style: italic;&quot;&gt;const&lt;/span&gt;&lt;span style=&quot;color: #f7f1ff;&quot;&gt; &lt;/span&gt;&lt;span style=&quot;color: #5ad4e6;font-style: italic;&quot;&gt;int16_t&lt;/span&gt;&lt;span style=&quot;color: #f7f1ff;&quot;&gt; &lt;/span&gt;&lt;span style=&quot;color: #fc618d;&quot;&gt;*&lt;/span&gt;&lt;span style=&quot;color: #f7f1ff;&quot;&gt; &lt;/span&gt;&lt;span style=&quot;color: #fd9353;font-style: italic;&quot;&gt;buffer&lt;/span&gt;&lt;span style=&quot;color: #8b888f;&quot;&gt;,&lt;/span&gt;&lt;span style=&quot;color: #f7f1ff;&quot;&gt; &lt;/span&gt;&lt;span style=&quot;color: #5ad4e6;font-style: italic;&quot;&gt;uint16_t&lt;/span&gt;&lt;span style=&quot;color: #f7f1ff;&quot;&gt; &lt;/span&gt;&lt;span style=&quot;color: #fd9353;font-style: italic;&quot;&gt;num_samples&lt;/span&gt;&lt;span style=&quot;color: #8b888f;&quot;&gt;)&lt;/span&gt;&lt;/div&gt;&lt;div&gt;&lt;span style=&quot;color: #8b888f;&quot;&gt;{&lt;/span&gt;&lt;/div&gt;&lt;div&gt;&lt;span style=&quot;color: #f7f1ff;&quot;&gt;&amp;nbsp; &amp;nbsp; &lt;/span&gt;&lt;span style=&quot;color: #7bd88f;&quot;&gt;btstack_ring_buffer_write&lt;/span&gt;&lt;span style=&quot;color: #8b888f;&quot;&gt;(&lt;/span&gt;&lt;span style=&quot;color: #fc618d;&quot;&gt;&amp;amp;&lt;/span&gt;&lt;span style=&quot;color: #f7f1ff;&quot;&gt;audio_input_ring_buffer&lt;/span&gt;&lt;span style=&quot;color: #8b888f;&quot;&gt;,&lt;/span&gt;&lt;span style=&quot;color: #f7f1ff;&quot;&gt; &lt;/span&gt;&lt;span style=&quot;color: #8b888f;&quot;&gt;(&lt;/span&gt;&lt;span style=&quot;color: #5ad4e6;font-style: italic;&quot;&gt;uint8_t&lt;/span&gt;&lt;span style=&quot;color: #f7f1ff;&quot;&gt; &lt;/span&gt;&lt;span style=&quot;color: #fc618d;&quot;&gt;*&lt;/span&gt;&lt;span style=&quot;color: #8b888f;&quot;&gt;)&lt;/span&gt;&lt;span style=&quot;color: #f7f1ff;&quot;&gt;buffer&lt;/span&gt;&lt;span style=&quot;color: #8b888f;&quot;&gt;,&lt;/span&gt;&lt;span style=&quot;color: #f7f1ff;&quot;&gt; num_samples &lt;/span&gt;&lt;span style=&quot;color: #fc618d;&quot;&gt;*&lt;/span&gt;&lt;span style=&quot;color: #f7f1ff;&quot;&gt; &lt;/span&gt;&lt;span style=&quot;color: #948ae3;&quot;&gt;2&lt;/span&gt;&lt;span style=&quot;color: #8b888f;&quot;&gt;);&lt;/span&gt;&lt;/div&gt;&lt;div&gt;&lt;span style=&quot;color: #8b888f;&quot;&gt;}&lt;/span&gt;&lt;/div&gt;&lt;/div&gt;" style="text;whiteSpace=wrap;html=1;" vertex="1" parent="1">
                    <mxGeometry x="560" y="1250" width="560" height="140" as="geometry"/>
                </mxCell>
                <mxCell id="57" style="edgeStyle=entityRelationEdgeStyle;html=1;entryX=0;entryY=0.5;entryDx=0;entryDy=0;" edge="1" parent="1" source="50" target="55">
                    <mxGeometry relative="1" as="geometry"/>
                </mxCell>
                <mxCell id="50" value="&lt;div style=&quot;color: rgb(247, 241, 255); background-color: rgb(34, 34, 34); font-family: &amp;quot;Ubuntu Mono&amp;quot;, Consolas, &amp;quot;Courier New&amp;quot;, monospace; font-weight: normal; font-size: 14px; line-height: 19px;&quot;&gt;&lt;div&gt;&lt;span style=&quot;color: #8b888f;&quot;&gt;&amp;nbsp; &amp;nbsp; &lt;/span&gt;&lt;span style=&quot;color: #69676c;font-style: italic;&quot;&gt;// config and setup audio recording&lt;/span&gt;&lt;/div&gt;&lt;div&gt;&lt;span style=&quot;color: #f7f1ff;&quot;&gt;&amp;nbsp; &amp;nbsp; &lt;/span&gt;&lt;span style=&quot;color: #fc618d;font-style: italic;&quot;&gt;const&lt;/span&gt;&lt;span style=&quot;color: #f7f1ff;&quot;&gt; &lt;/span&gt;&lt;span style=&quot;color: #5ad4e6;font-style: italic;&quot;&gt;btstack_audio_source_t&lt;/span&gt;&lt;span style=&quot;color: #f7f1ff;&quot;&gt; &lt;/span&gt;&lt;span style=&quot;color: #fc618d;&quot;&gt;*&lt;/span&gt;&lt;span style=&quot;color: #f7f1ff;&quot;&gt; audio_source &lt;/span&gt;&lt;span style=&quot;color: #fc618d;&quot;&gt;=&lt;/span&gt;&lt;span style=&quot;color: #f7f1ff;&quot;&gt; &lt;/span&gt;&lt;span style=&quot;color: #7bd88f;&quot;&gt;btstack_audio_source_get_instance&lt;/span&gt;&lt;span style=&quot;color: #8b888f;&quot;&gt;();&lt;/span&gt;&lt;/div&gt;&lt;div&gt;&lt;span style=&quot;color: #f7f1ff;&quot;&gt;&amp;nbsp; &amp;nbsp; &lt;/span&gt;&lt;span style=&quot;color: #fc618d;&quot;&gt;if&lt;/span&gt;&lt;span style=&quot;color: #f7f1ff;&quot;&gt; &lt;/span&gt;&lt;span style=&quot;color: #8b888f;&quot;&gt;(&lt;/span&gt;&lt;span style=&quot;color: #f7f1ff;&quot;&gt;audio_source &lt;/span&gt;&lt;span style=&quot;color: #fc618d;&quot;&gt;!=&lt;/span&gt;&lt;span style=&quot;color: #f7f1ff;&quot;&gt; &lt;/span&gt;&lt;span style=&quot;color: #948ae3;&quot;&gt;NULL&lt;/span&gt;&lt;span style=&quot;color: #8b888f;&quot;&gt;){&lt;/span&gt;&lt;/div&gt;&lt;div&gt;&lt;span style=&quot;color: #f7f1ff;&quot;&gt;&amp;nbsp; &amp;nbsp; &amp;nbsp; &amp;nbsp; audio_source&lt;/span&gt;&lt;span style=&quot;color: #8b888f;&quot;&gt;-&amp;gt;&lt;/span&gt;&lt;span style=&quot;color: #7bd88f;&quot;&gt;init&lt;/span&gt;&lt;span style=&quot;color: #8b888f;&quot;&gt;(&lt;/span&gt;&lt;span style=&quot;color: #948ae3;&quot;&gt;1&lt;/span&gt;&lt;span style=&quot;color: #8b888f;&quot;&gt;,&lt;/span&gt;&lt;span style=&quot;color: #f7f1ff;&quot;&gt; sample_rate&lt;/span&gt;&lt;span style=&quot;color: #8b888f;&quot;&gt;,&lt;/span&gt;&lt;span style=&quot;color: #f7f1ff;&quot;&gt; &lt;/span&gt;&lt;span style=&quot;color: #fc618d;&quot;&gt;&amp;amp;&lt;/span&gt;&lt;span style=&quot;color: #f7f1ff;&quot;&gt;audio_recording_callback&lt;/span&gt;&lt;span style=&quot;color: #8b888f;&quot;&gt;);&lt;/span&gt;&lt;/div&gt;&lt;div&gt;&lt;span style=&quot;color: #f7f1ff;&quot;&gt;&amp;nbsp; &amp;nbsp; &amp;nbsp; &amp;nbsp; audio_source&lt;/span&gt;&lt;span style=&quot;color: #8b888f;&quot;&gt;-&amp;gt;&lt;/span&gt;&lt;span style=&quot;color: #7bd88f;&quot;&gt;start_stream&lt;/span&gt;&lt;span style=&quot;color: #8b888f;&quot;&gt;();&lt;/span&gt;&lt;/div&gt;&lt;div&gt;&lt;span style=&quot;color: #f7f1ff;&quot;&gt;&amp;nbsp; &amp;nbsp; &lt;/span&gt;&lt;span style=&quot;color: #8b888f;&quot;&gt;}&lt;/span&gt;&lt;/div&gt;&lt;/div&gt;" style="text;whiteSpace=wrap;html=1;" vertex="1" parent="1">
                    <mxGeometry x="560" y="1380" width="560" height="160" as="geometry"/>
                </mxCell>
                <mxCell id="58" style="edgeStyle=entityRelationEdgeStyle;html=1;entryX=0;entryY=0.5;entryDx=0;entryDy=0;" edge="1" parent="1" source="51" target="55">
                    <mxGeometry relative="1" as="geometry"/>
                </mxCell>
                <mxCell id="51" value="&lt;div style=&quot;color: rgb(247, 241, 255); background-color: rgb(34, 34, 34); font-family: &amp;quot;Ubuntu Mono&amp;quot;, Consolas, &amp;quot;Courier New&amp;quot;, monospace; font-weight: normal; font-size: 14px; line-height: 19px;&quot;&gt;&lt;div&gt;&lt;span style=&quot;color: #f7f1ff;&quot;&gt;&amp;nbsp; &amp;nbsp; &lt;/span&gt;&lt;span style=&quot;color: #fc618d;font-style: italic;&quot;&gt;const&lt;/span&gt;&lt;span style=&quot;color: #f7f1ff;&quot;&gt; &lt;/span&gt;&lt;span style=&quot;color: #5ad4e6;font-style: italic;&quot;&gt;btstack_audio_source_t&lt;/span&gt;&lt;span style=&quot;color: #f7f1ff;&quot;&gt; &lt;/span&gt;&lt;span style=&quot;color: #fc618d;&quot;&gt;*&lt;/span&gt;&lt;span style=&quot;color: #f7f1ff;&quot;&gt; audio_source&lt;/span&gt;&lt;span style=&quot;color: #fc618d;&quot;&gt;=&lt;/span&gt;&lt;span style=&quot;color: #f7f1ff;&quot;&gt; &lt;/span&gt;&lt;span style=&quot;color: #7bd88f;&quot;&gt;btstack_audio_source_get_instance&lt;/span&gt;&lt;span style=&quot;color: #8b888f;&quot;&gt;();&lt;/span&gt;&lt;/div&gt;&lt;div&gt;&lt;span style=&quot;color: #f7f1ff;&quot;&gt;&amp;nbsp; &amp;nbsp; &lt;/span&gt;&lt;span style=&quot;color: #fc618d;&quot;&gt;if&lt;/span&gt;&lt;span style=&quot;color: #f7f1ff;&quot;&gt; &lt;/span&gt;&lt;span style=&quot;color: #8b888f;&quot;&gt;(&lt;/span&gt;&lt;span style=&quot;color: #fc618d;&quot;&gt;!&lt;/span&gt;&lt;span style=&quot;color: #f7f1ff;&quot;&gt;audio_source&lt;/span&gt;&lt;span style=&quot;color: #8b888f;&quot;&gt;)&lt;/span&gt;&lt;span style=&quot;color: #f7f1ff;&quot;&gt; &lt;/span&gt;&lt;span style=&quot;color: #fc618d;&quot;&gt;return&lt;/span&gt;&lt;span style=&quot;color: #8b888f;&quot;&gt;;&lt;/span&gt;&lt;/div&gt;&lt;div&gt;&lt;span style=&quot;color: #f7f1ff;&quot;&gt;&amp;nbsp; &amp;nbsp; audio_source&lt;/span&gt;&lt;span style=&quot;color: #8b888f;&quot;&gt;-&amp;gt;&lt;/span&gt;&lt;span style=&quot;color: #7bd88f;&quot;&gt;close&lt;/span&gt;&lt;span style=&quot;color: #8b888f;&quot;&gt;();&lt;/span&gt;&lt;/div&gt;&lt;/div&gt;" style="text;whiteSpace=wrap;html=1;" vertex="1" parent="1">
                    <mxGeometry x="560" y="1540" width="560" height="100" as="geometry"/>
                </mxCell>
                <mxCell id="55" value="&lt;div style=&quot;color: rgb(247, 241, 255); background-color: rgb(34, 34, 34); font-family: &amp;quot;Ubuntu Mono&amp;quot;, Consolas, &amp;quot;Courier New&amp;quot;, monospace; font-weight: normal; font-size: 14px; line-height: 19px;&quot;&gt;&lt;div&gt;&lt;span style=&quot;color: #8b888f;&quot;&gt;#&lt;/span&gt;&lt;span style=&quot;color: #fc618d;&quot;&gt;endif&lt;/span&gt;&lt;/div&gt;&lt;/div&gt;" style="text;whiteSpace=wrap;html=1;" vertex="1" parent="1">
                    <mxGeometry x="1180" y="1445" width="50" height="30" as="geometry"/>
                </mxCell>
            </root>
        </mxGraphModel>
    </diagram>
</mxfile>